<svg width="25" height="25" viewBox="0 0 25 25" fill="none" xmlns="http://www.w3.org/2000/svg">
<path d="M3.70703 9.37265H7.42187V21.3023H3.70703V9.37265ZM5.56172 3.43515C6.74687 3.43515 7.71015 4.39843 7.71015 5.58359C7.71015 6.76874 6.74687 7.73437 5.5625 7.73437C4.99238 7.73313 4.44596 7.50616 4.04276 7.1031C3.63955 6.70004 3.41238 6.1537 3.41093 5.58359C3.41093 5.30125 3.46658 5.02169 3.5747 4.76088C3.68281 4.50006 3.84128 4.26312 4.04103 4.06359C4.24077 3.86405 4.47789 3.70585 4.73882 3.59802C4.99976 3.49019 5.27938 3.43484 5.56172 3.43515ZM9.7414 9.37265H13.2977V11.0031H13.3469C13.8422 10.0656 15.0516 9.07656 16.8625 9.07656C20.6172 9.07656 21.3102 11.5477 21.3102 14.7594V21.3031H17.6047V15.5C17.6047 14.1172 17.5797 12.3359 15.6781 12.3359C13.7484 12.3359 13.4516 13.8437 13.4516 15.3984V21.3H9.74687V9.37031L9.7414 9.37265Z" fill="white"/>
</svg>
